<svg xmlns="http://www.w3.org/2000/svg" width="139" height="38">
  <defs>
    <linearGradient id="a" x1="50%" x2="50%" y1="0%" y2="91.7202847%">
      <stop offset="0%" stop-color="#FFF"/>
      <stop offset="51.5963807%" stop-color="#F1F3FA"/>
      <stop offset="100%" stop-color="#FFF"/>
    </linearGradient>
  </defs>
  <path fill="url(#a)" fill-rule="evenodd" d="M249.074807 1101.3891524L249 1095.4166174h21.726448l-.035516 6.0421261h-15.784683v10.6037837h21.038522V1118h-26.944203l.074239-16.6108476zM249.05611 1080H276v5.99516661h-26.94389V1080zm-24.2139449 32.1334895H245V1118h-26v-38h5.8421651zm-16.5957971-.0361692v-10.6070044h-21.2463658l.1006189-6.0858124H214V1118h-26.9988322v-5.9026797h21.2452002zM187 1080h27v6.07471892h-26.8993768L187 1080zm-11 0h6v38h-6zm-21.0008448 6.81909091L143.92071495 1118H137l14.4354552-38h7.0764055L173 1118h-7.1836885z" transform="translate(-137 -1080)"/>
</svg>