<svg xmlns="http://www.w3.org/2000/svg" xmlns:xlink="http://www.w3.org/1999/xlink" width="1003" height="274">
    <defs>
        <path id="a5" d="M805.206466 0H1000v41.8980676H805.206466V0zm.135879 
152.546797l-.537214-42.234084h156.870487l-.252116 
42.234084H846.717751v76.87476h152.880914V270.9068H804.805131l.537214-118.360003zM589.787968.62294365h40.855409V230.558318h144.418106v40.978581H589.787968V.62294365zM365.090548.6091563h194.915347v42.4439959H365.803907L365.090548.6091563zm.713359 
110.1669387h194.201988v160.594087H365.090548v-41.213639h154.164474v-76.857116H365.090548l.713359-42.523332zM287.945307.62294365H335.3469V271.332317h-47.401593V.62294365zm-184.107924.46310078h50.402818L258.456552 
272h-50.781786l-78.44649-224.1164391L48.8869434 272H0L103.837383 
1.08604443z"/>
    </defs>
    <g fill="none" fill-rule="evenodd" transform="translate(2 1)">
        <use fill="#fff" fill-opacity="1" xlink:href="#a5"/>
        <path stroke="#000" stroke-opacity=".8" d="M804.706466-.5H1000.5v42.8980676H804.706466V-.5zm.135865 
153.048842l-.543601-42.736129h157.879881l-.258085 
43.234084H847.217751v75.87476h152.880919V271.4068H804.302856l.539475-118.857958zm0 
0l.000019-.004315.000036.008629-.000055-.004314zm-173.698954 
77.509476h144.418106v41.978581H589.287968V.12294365h41.855409V230.058318zM364.582074.1091563h195.923821v43.4439959H365.31224L364.582074.1091563zM518.755022 
229.656543v-75.857116H364.58209l.730135-43.523332h195.19367v161.594087H364.590548v-42.213639h154.164474zM287.445307.12294365H335.8469V271.832317h-48.401593V.12294365zM129.222652 
49.3809387L49.2388596 
272.5H-.72711163L103.493557.58604443h51.090021L259.184614 
272.5h-51.86458L129.222652 49.3809387z"/>
    </g>
</svg>
