<svg xmlns="http://www.w3.org/2000/svg" width="18" height="18">
  <path fill="#c2b280" d="M15.140855 8.55003V6.78984c0-.23388-.190255-.42347-.424948-.42347H.424948C.190428 6.36678.000416 6.55613 0 6.78984v4.26936c0 2.39012 1.118324 4.59186 3.066129 6.03859.073639.05403.162615.08332.254062.08364h8.497449c.091447-.00032.180423-.02961.254062-.08364.788649-.58547 1.428339-1.32466 1.943268-2.16934.224572.05274.450656.11604.66313.11905h.038563c1.786748 0 3.260456-1.45276 3.28314-3.23781.018148-1.65997-1.221158-3.03587-2.858948-3.25966zm-.850652.37826v2.13091c.000062 1.12177-.289771 2.22465-.841579 3.2024-.444047.80354-1.048212 1.50817-1.775406 2.07063H3.465369C1.801115 15.0475.849896 13.13285.849896 11.0592V7.21331h13.440307v1.71498zm.425704 5.27001h-.027977c-.081459-.00025-.162806-.00604-.243475-.01733.020415-.03843.024952-.08062.041587-.11905.192513-.42353.343436-.86463.450657-1.31713.020415-.07686.029489-.15598.04688-.23509.096029-.47396.158032-.95696.158032-1.44975V9.38642c1.170553.21041 2.018303 1.23124 2.006784 2.41649-.020992 1.32533-1.102378 2.39022-2.432488 2.39539zM7.569672 5.20371c-.112966.0004-.221442-.04404-.301462-.1235-.080021-.07946-.125-.1874-.124999-.29997V.42422c0-.23429.190594-.42422.425704-.42422s.425705.18993.425705.42422v4.35602c0 .23358-.191303.42347-.424948.42347zm3.575008 0c-.234693 0-.424948-.1896-.424948-.42347V1.42789c0-.23387.190255-.42347.424948-.42347.234692 0 .424948.1896.424948.42347v3.35235c0 .23358-.18979.42347-.424948.42347zm-7.149261 0c-.234692 0-.424948-.1896-.424948-.42347V1.42789c0-.23387.190256-.42347.424948-.42347.234693 0 .424949.1896.424949.42347v3.35235c0 .23358-.191303.42347-.424949.42347z"/>
</svg>