<svg xmlns="http://www.w3.org/2000/svg" width="207" height="208">
  <g fill="none">
    <path fill="#FF4081" d="M39.5235043 65.8888889L41.8917379 60.9 144.673077 182.555556l-1.894587 2.777777h-2.368234L39.5235043 65.8888889zM150.830484 185.333333H56.1011396V202h94.7293444v-16.666667z"/>
    <path fill="#9C27B0" d="M166.925 139.222222l-2.368234 5.011111L62.2632835 21.4444444l1.4209401-2.7777777h2.8324075L166.925 139.222222zm-24.141774 46.111111L150.830484 202l52.10114-100h-16.577635l-43.570763 83.333333z"/>
    <path fill="#00BCD4" d="M150.830484 18.6666667H56.1011396V2h94.7293444v16.6666667zm-8.051994 0h-2.84188L39.0356481 137.544444l2.3682337 5.016667L144.208903 21.4444444l-1.430413-2.7777777z"/>
    <path fill="#FFC107" d="M63.6889601 18.6666667L15.8411681 110.9 4 102 56.1011396 2l7.5878205 16.6666667zm80.5199429 2.2111111l-1.430413-2.2111111h-8.051994L44.7336182 55.3444444l-3.7891738 7.2L144.208903 20.8777778z"/>
    <path fill="#FF5722" d="M64.1531339 185.333333L56.1011396 202 4 102h16.5776353l43.5754986 83.333333zm1.4209402-44.444444V18.6666667h-1.885114l-2.8513533 5.5555555V140.888889H40.9444444l2.8324075 5.555555h17.0607549v32.766667l3.3155271 6.122222h1.4209402v-38.888889h97.5806979l2.827671-5.555555H65.5740741z"/>
    <path fill="#03A9F4" d="M163.618946 58.6666667L63.2058405 183.666667l.9472934 1.666666h4.2722935L165.523006 64.2222222 139.931873 185.333333h3.315527l2.846617-5.555555 23.682336-110.0000002-6.157407-11.1111111zM186.353989 102L142.77849 18.6666667 150.830484 2l52.10114 100h-16.577635z"/>
  </g>
</svg>