<svg xmlns="http://www.w3.org/2000/svg" width="17" height="17">
  <path fill="#EB0942" d="M8.13500183 16.762722c.10005537.1191731.24304839.1872635.39313146.1872012h.0005277c.15015099-.0001523.29313092-.0684409.39313146-.1877634l6.95710775-8.30374904c.6996852-.90873087 1.0833073-2.04700611 1.0859927-3.2223336 0-2.84062312-2.2126178-5.151124-4.9328765-5.151124-1.3392854 0-2.58780764.55092235-3.51021543 1.53190144C7.59939318.63643767 6.35087097.08495315 5.01158551.08495315c-2.71973098 0-4.93287644 2.31050089-4.93287644 5.15112401 0 1.16818026.38574376 2.31331172 1.10498965 3.24763106.06754474.08769784 5.33814486 6.35921798 6.95130311 8.27901378zM5.01105782 1.20928449c1.22477602 0 2.35245648.58352796 3.0933378 1.59992349.19999574.27433684.63375958.27433684.83375532 0 .74088132-1.0169577 1.86856176-1.59992349 3.09333776-1.59992349 2.1382131 0 3.87749 1.80623829 3.87749 4.02679267.0030206.9085014-.2912435 1.78972515-.8321722 2.4920804L8.52813329 15.544509C6.11340901 12.6712803 2.10874498 7.90467758 1.9820986 7.74783336c-.54935665-.70600826-.84921116-1.59472015-.84747535-2.5117562-.00052769-2.21999222 1.73874924-4.02679267 3.87643457-4.02679267z"/>
</svg>